<svg width="117.000000" height="63.000000" viewBox="0 0 117 63" fill="none" xmlns="http://www.w3.org/2000/svg" xmlns:xlink="http://www.w3.org/1999/xlink">
	<desc>
			Created with Pixso.
	</desc>
	<defs>
		<clipPath id="clip56_5">
			<rect id="logo" width="39.678257" height="45.725811" transform="translate(38.660889 0.000000)" fill="white" fill-opacity="0"/>
		</clipPath>
	</defs>
	<g clip-path="url(#clip56_5)">
		<path id="path" d="M42.43 36.47L42.43 13.64L58.49 4.38L74.56 13.64L74.56 32.08L58.49 41.33L49.99 36.43L49.99 18.06L58.49 13.16L67 18.06L67 27.65L58.49 32.55L57.55 32.01L57.55 22.48L62.3 19.74L58.49 17.55L53.77 20.27L53.77 34.22L58.49 36.94L70.78 29.86L70.78 15.85L58.49 8.77L46.21 15.85L46.21 38.64L58.49 45.72L78.33 34.29L78.33 11.43L58.49 0L38.66 11.43L38.66 34.29L42.43 36.47Z" fill="#00C865" fill-opacity="1.000000" fill-rule="nonzero"/>
	</g>
	<path id="path" d="M12.31 51.04L2.58 51.04L2.41 55.71C2.38 56.7 2.31 57.51 2.2 58.13C2.1 58.75 1.93 59.23 1.69 59.58C1.45 59.92 1.1 60.1 0.65 60.1C0.49 60.1 0.33 60.08 0.18 60.05L0 62.76C0.57 62.89 1.09 62.96 1.55 62.96C2.54 62.96 3.3 62.68 3.84 62.1C4.38 61.52 4.77 60.71 4.99 59.66C5.21 58.61 5.36 57.25 5.41 55.58L5.48 53.67L8.95 53.67L8.95 62.76L12.31 62.76L12.31 51.04ZM16.63 51.04L16.63 62.76L19.85 62.76L24.82 55.89L24.82 62.76L28.18 62.76L28.18 51.04L24.98 51.04L19.99 57.92L19.99 51.04L16.63 51.04ZM42.62 51.04L39.26 51.04L39.26 56.13C38.66 56.4 37.95 56.53 37.12 56.53C35.6 56.53 34.84 55.78 34.84 54.27L34.84 51.04L31.48 51.04L31.48 54.64C31.48 56.12 31.93 57.26 32.82 58.05C33.71 58.83 35 59.23 36.69 59.23C37.47 59.23 38.33 59.08 39.26 58.78L39.26 62.76L42.62 62.76L42.62 51.04ZM58.43 51.04L55.01 51.04L55.01 55.44L50.35 55.44L50.35 51.04L46.94 51.04L46.94 62.76L50.35 62.76L50.35 58.19L55.01 58.19L55.01 62.76L58.43 62.76L58.43 51.04ZM65.23 62.21C66.25 62.73 67.4 63 68.68 63C69.95 63 71.1 62.73 72.12 62.21C73.13 61.68 73.93 60.96 74.51 60.03C75.1 59.11 75.38 58.06 75.38 56.9C75.38 55.74 75.1 54.69 74.51 53.77C73.93 52.84 73.13 52.11 72.12 51.59C71.1 51.06 69.95 50.8 68.68 50.8C67.4 50.8 66.25 51.06 65.23 51.59C64.22 52.11 63.42 52.84 62.84 53.77C62.25 54.69 61.96 55.74 61.96 56.9C61.96 58.06 62.25 59.11 62.84 60.03C63.42 60.96 64.22 61.68 65.23 62.21ZM70.33 59.83C69.84 60.11 69.28 60.25 68.68 60.25C68.07 60.25 67.51 60.11 67.02 59.83C66.52 59.55 66.13 59.16 65.84 58.65C65.56 58.14 65.41 57.56 65.41 56.9C65.41 56.24 65.56 55.66 65.84 55.15C66.13 54.64 66.52 54.25 67.02 53.97C67.51 53.69 68.07 53.55 68.68 53.55C69.28 53.55 69.84 53.69 70.33 53.97C70.83 54.25 71.22 54.64 71.5 55.15C71.79 55.66 71.93 56.24 71.93 56.9C71.93 57.56 71.79 58.14 71.5 58.65C71.22 59.16 70.83 59.55 70.33 59.83ZM81.41 62.22C82.42 62.74 83.56 63 84.82 63C85.93 63 86.92 62.81 87.81 62.43C88.69 62.05 89.43 61.5 90.01 60.78L87.84 58.88C87.06 59.79 86.11 60.25 84.99 60.25C84.34 60.25 83.75 60.11 83.24 59.83C82.73 59.55 82.34 59.16 82.05 58.65C81.77 58.14 81.63 57.56 81.63 56.9C81.63 56.24 81.77 55.66 82.05 55.15C82.34 54.64 82.73 54.25 83.24 53.97C83.75 53.69 84.34 53.55 84.99 53.55C86.11 53.55 87.06 54.01 87.84 54.92L90.01 53.01C89.43 52.3 88.69 51.75 87.81 51.37C86.92 50.99 85.93 50.8 84.82 50.8C83.56 50.8 82.42 51.06 81.41 51.58C80.41 52.1 79.62 52.82 79.04 53.75C78.47 54.68 78.18 55.73 78.18 56.9C78.18 58.07 78.47 59.12 79.04 60.05C79.62 60.97 80.41 61.7 81.41 62.22ZM102.9 53.67L102.9 51.04L92.14 51.04L92.14 53.67L95.85 53.67L95.85 62.76L99.21 62.76L99.21 53.67L102.9 53.67ZM115.79 55.73C114.98 55.09 113.84 54.77 112.36 54.77L109.56 54.77L109.56 51.04L106.2 51.04L106.2 62.76L111.91 62.76C113.51 62.76 114.75 62.41 115.65 61.69C116.55 60.97 117 59.94 117 58.59C117 57.33 116.59 56.38 115.79 55.73ZM113.06 59.93C112.72 60.23 112.26 60.38 111.68 60.38L109.56 60.38L109.56 57.13L111.68 57.13C112.94 57.13 113.56 57.64 113.56 58.66C113.56 59.21 113.39 59.63 113.06 59.93Z" fill="#535353" fill-opacity="1.000000" fill-rule="nonzero"/>
</svg>
