<svg width="50" height="50" viewBox="0 0 50 50" fill="none" xmlns="http://www.w3.org/2000/svg">
<path d="M18.7497 33.3325H29.1663M18.7497 24.9991H29.1663C30.2714 24.9991 31.3312 24.5602 32.1126 23.7788C32.894 22.9974 33.333 21.9375 33.333 20.8325C33.333 19.7274 32.894 18.6676 32.1126 17.8862C31.3312 17.1048 30.2714 16.6658 29.1663 16.6658H22.9163V35.4158M8.0205 17.9575C7.71642 16.5877 7.76311 15.1634 8.15625 13.8165C8.54938 12.4696 9.27623 11.2438 10.2694 10.2527C11.2626 9.26164 12.4899 8.53736 13.8376 8.14705C15.1853 7.75674 16.6097 7.71303 17.9788 8.01998C18.7324 6.84144 19.7705 5.87156 20.9975 5.19974C22.2245 4.52792 23.6008 4.17578 24.9997 4.17578C26.3985 4.17578 27.7749 4.52792 29.0019 5.19974C30.2288 5.87156 31.2669 6.84144 32.0205 8.01998C33.3917 7.71169 34.8186 7.75521 36.1684 8.14647C37.5183 8.53772 38.7472 9.26402 39.741 10.2578C40.7348 11.2516 41.4611 12.4805 41.8523 13.8304C42.2436 15.1802 42.2871 16.6071 41.9788 17.9783C43.1574 18.7319 44.1273 19.77 44.7991 20.997C45.4709 22.2239 45.823 23.6003 45.823 24.9991C45.823 26.398 45.4709 27.7744 44.7991 29.0013C44.1273 30.2283 43.1574 31.2664 41.9788 32.02C42.2858 33.3891 42.2421 34.8135 41.8518 36.1612C41.4615 37.5089 40.7372 38.7362 39.7461 39.7294C38.755 40.7226 37.5292 41.4494 36.1823 41.8426C34.8354 42.2357 33.4111 42.2824 32.0413 41.9783C31.2888 43.1614 30.2498 44.1354 29.0208 44.8102C27.7917 45.485 26.4122 45.8388 25.0101 45.8388C23.6079 45.8388 22.2285 45.485 20.9994 44.8102C19.7703 44.1354 18.7314 43.1614 17.9788 41.9783C16.6097 42.2853 15.1853 42.2416 13.8376 41.8512C12.4899 41.4609 11.2626 40.7366 10.2694 39.7456C9.27623 38.7545 8.54938 37.5287 8.15625 36.1818C7.76311 34.8349 7.71642 33.4105 8.0205 32.0408C6.83291 31.2892 5.8547 30.2495 5.17685 29.0183C4.49901 27.7872 4.14355 26.4046 4.14355 24.9991C4.14355 23.5937 4.49901 22.2111 5.17685 20.9799C5.8547 19.7488 6.83291 18.7091 8.0205 17.9575Z" stroke="#E0660B" stroke-width="4" stroke-linecap="round" stroke-linejoin="round"/>
</svg>
