<svg width="50" height="50" viewBox="0 0 50 50" fill="none" xmlns="http://www.w3.org/2000/svg">
<path d="M20.833 4.16602H29.1663M24.9997 29.166V20.8327M8.33301 27.0827C8.84314 23.0326 10.8219 19.3106 13.8939 16.6226C16.966 13.9345 20.9177 12.4673 24.9997 12.4993C27.6956 12.5022 30.3506 13.159 32.7369 14.4134C35.1232 15.6678 37.1696 17.4824 38.7006 19.7015C40.2315 21.9205 41.2013 24.4779 41.5267 27.1541C41.8522 29.8303 41.5236 32.5455 40.5691 35.0668C39.6146 37.5881 38.0627 39.8403 36.0466 41.63C34.0304 43.4198 31.6102 44.6938 28.9936 45.3427C26.3769 45.9916 23.6418 45.996 21.0231 45.3557C18.4043 44.7153 15.98 43.4492 13.958 41.666L8.33301 36.666M18.7497 35.416H8.33301V45.8327" stroke="#E0660B" stroke-width="4" stroke-linecap="round" stroke-linejoin="round"/>
</svg>
