<svg width="50" height="50" viewBox="0 0 50 50" fill="none" xmlns="http://www.w3.org/2000/svg">
<path d="M29.167 37.5007V12.5007C29.167 11.3956 28.728 10.3358 27.9466 9.55437C27.1652 8.77297 26.1054 8.33398 25.0003 8.33398H8.33366C7.22859 8.33398 6.16878 8.77297 5.38738 9.55437C4.60598 10.3358 4.16699 11.3956 4.16699 12.5007V35.4173C4.16699 35.9699 4.38649 36.4998 4.77719 36.8905C5.16789 37.2812 5.69779 37.5007 6.25033 37.5007H10.417M10.417 37.5007C10.417 39.8018 12.2825 41.6673 14.5837 41.6673C16.8848 41.6673 18.7503 39.8018 18.7503 37.5007M10.417 37.5007C10.417 35.1995 12.2825 33.334 14.5837 33.334C16.8848 33.334 18.7503 35.1995 18.7503 37.5007M31.2503 37.5007H18.7503M31.2503 37.5007C31.2503 39.8018 33.1158 41.6673 35.417 41.6673C37.7182 41.6673 39.5837 39.8018 39.5837 37.5007M31.2503 37.5007C31.2503 35.1995 33.1158 33.334 35.417 33.334C37.7182 33.334 39.5837 35.1995 39.5837 37.5007M39.5837 37.5007H43.7503C44.3029 37.5007 44.8328 37.2812 45.2235 36.8905C45.6142 36.4998 45.8337 35.9699 45.8337 35.4173V27.8132C45.8328 27.3404 45.6712 26.8819 45.3753 26.5132L38.1253 17.4507C37.9305 17.2067 37.6833 17.0096 37.402 16.874C37.1207 16.7384 36.8126 16.6678 36.5003 16.6673H29.167" stroke="#E0660B" stroke-width="4" stroke-linecap="round" stroke-linejoin="round"/>
</svg>
