<svg width="50" height="50" viewBox="0 0 50 50" fill="none" xmlns="http://www.w3.org/2000/svg">
<path d="M33.3336 4.16602L28.542 8.95768C27.3968 10.126 26.7554 11.6967 26.7554 13.3327C26.7554 14.9686 27.3968 16.5394 28.542 17.7077L32.292 21.4577C33.4603 22.6029 35.031 23.2443 36.667 23.2443C38.3029 23.2443 39.8737 22.6029 41.042 21.4577L45.8336 16.666M31.2503 31.2493L6.8753 6.87435C6.0438 7.68905 5.38323 8.66147 4.93227 9.73466C4.48131 10.8079 4.24902 11.9603 4.24902 13.1243C4.24902 14.2884 4.48131 15.4408 4.93227 16.514C5.38323 17.5872 6.0438 18.5597 6.8753 19.3743L22.0836 34.5827C23.542 36.041 26.2503 36.041 27.917 34.5827L31.2503 31.2493ZM31.2503 31.2493L45.8336 45.8327M4.3753 45.416L17.7086 32.291M39.5836 10.416L25.0003 24.9993" stroke="#E0660B" stroke-width="4" stroke-linecap="round" stroke-linejoin="round"/>
</svg>
