<?xml version="1.0" standalone="no"?>
<!DOCTYPE svg PUBLIC "-//W3C//DTD SVG 20010904//EN"
 "http://www.w3.org/TR/2001/REC-SVG-20010904/DTD/svg10.dtd">
<svg version="1.0" xmlns="http://www.w3.org/2000/svg"
 width="700.000000pt" height="700.000000pt" viewBox="0 0 700.000000 700.000000"
 preserveAspectRatio="xMidYMid meet">
<metadata>
Created by potrace 1.14, written by Peter Selinger 2001-2017
</metadata>
<g transform="translate(0.000000,700.000000) scale(0.100000,-0.100000)"
fill="#000000" stroke="none">
<path d="M4828 6123 c-16 -4 -41 -55 -54 -110 -12 -55 -12 -253 0 -305 33
-141 86 -156 121 -35 8 29 16 67 17 84 1 19 6 29 11 24 19 -19 6 -193 -16
-219 -6 -8 -28 -43 -47 -77 -36 -65 -151 -267 -196 -345 -15 -25 -44 -76 -67
-115 -22 -38 -42 -72 -44 -74 -2 -3 -24 -4 -49 -2 -36 1 -51 8 -72 32 -44 49
-106 46 -155 -9 -16 -17 -32 -20 -125 -21 -112 -2 -141 -11 -162 -52 -14 -26
-5 -70 21 -98 20 -21 29 -22 145 -20 107 2 126 0 143 -15 40 -36 117 -25 142
20 13 25 21 27 78 25 60 -2 74 -20 124 -158 25 -70 53 -153 60 -183 19 -71 58
-168 101 -250 256 -485 361 -749 392 -985 12 -84 8 -242 -6 -312 -53 -252
-254 -584 -440 -726 -213 -162 -349 -212 -525 -193 -27 3 -77 8 -110 11 -232
22 -444 76 -577 147 -91 48 -171 127 -210 206 -32 65 -33 70 -35 212 -2 157 7
224 58 436 l32 131 76 7 c123 10 163 15 168 20 5 5 40 134 48 178 12 65 19 72
121 114 62 26 98 46 97 55 0 8 -73 227 -162 488 -89 260 -161 475 -161 477 0
2 -301 193 -362 229 -32 19 -124 76 -188 117 -36 22 -77 48 -92 57 -47 27
-230 142 -298 186 -72 46 -421 262 -502 311 l-51 31 -86 -34 c-47 -18 -96 -38
-108 -43 l-22 -9 25 -68 c14 -37 75 -203 135 -368 60 -165 112 -307 116 -315
3 -8 7 -19 9 -25 3 -11 57 -158 69 -187 6 -14 2 -18 -16 -19 -13 -1 -35 -3
-49 -4 -14 -1 -72 -5 -130 -9 -58 -5 -121 -9 -140 -11 -19 -2 -82 -6 -140 -10
-58 -4 -121 -8 -140 -10 -19 -2 -78 -6 -130 -10 -52 -3 -115 -8 -140 -10 -25
-2 -88 -7 -140 -10 -52 -3 -115 -8 -140 -10 -25 -2 -88 -7 -140 -10 -52 -3
-115 -8 -140 -10 -25 -2 -92 -7 -150 -10 -58 -4 -106 -8 -108 -10 -3 -3 -27
-90 -37 -135 -20 -85 -28 -130 -24 -133 2 -2 83 -52 179 -112 96 -60 177 -110
179 -111 2 -2 -6 -12 -19 -22 -32 -26 -21 -66 22 -81 33 -12 162 -136 156
-151 -2 -4 -43 -35 -93 -68 -87 -58 -93 -60 -169 -65 -61 -4 -93 -12 -145 -38
-133 -65 -431 -403 -431 -490 0 -15 -11 -36 -26 -50 -15 -13 -45 -48 -67 -78
-34 -46 -38 -58 -31 -80 19 -54 229 -195 466 -312 l108 -53 -39 -41 c-84 -87
-161 -226 -194 -350 -53 -199 -35 -397 53 -580 246 -511 911 -637 1328 -251
43 39 132 151 132 164 0 6 4 12 8 14 13 5 69 128 88 193 9 32 22 92 28 133
l11 74 73 28 73 28 49 -48 c199 -198 617 -371 895 -371 96 0 128 10 232 70 46
26 204 85 258 95 37 7 190 35 220 40 115 20 497 26 885 13 166 -6 274 7 378
43 67 24 175 90 227 141 l40 38 2 -77 c18 -606 682 -994 1219 -711 96 50 134
78 211 156 96 97 159 199 201 328 30 88 34 118 37 247 2 99 -1 131 -24 220
-62 237 -184 392 -421 537 l-35 21 30 -5 c17 -2 77 -12 135 -20 58 -9 133 -23
168 -30 83 -20 99 -19 112 5 39 73 -192 310 -410 420 -101 50 -212 87 -301
100 -87 13 -277 15 -340 5 -24 -4 -41 -4 -38 -1 28 29 335 41 467 18 47 -8 52
-7 52 9 0 10 -4 28 -9 41 -5 13 -22 57 -37 98 -29 83 -123 276 -187 385 -69
118 -266 414 -356 535 -47 63 -93 125 -101 137 -8 12 -56 75 -107 140 -51 65
-121 156 -157 203 -80 104 -83 109 -113 141 l-24 26 48 -8 c26 -4 87 -8 135
-8 l86 -1 11 48 c29 122 39 223 36 377 -2 88 -6 171 -9 185 -2 14 -7 43 -10
65 -14 98 -12 95 -69 96 -139 2 -291 -17 -340 -42 -15 -9 -14 -1 8 57 14 37
22 71 18 74 -8 7 -47 23 -191 77 l-73 27 6 66 c11 112 8 148 -13 189 -13 25
-23 68 -26 111 -7 85 -13 114 -37 162 -21 41 -27 46 -51 41z m-3759 -2567 c18
-10 20 -14 8 -19 -8 -3 -23 3 -33 14 -20 22 -10 24 25 5z m5077 -1468 c13 -26
13 -31 -11 -68 l-26 -41 -34 28 c-26 22 -34 36 -34 64 -1 40 11 55 49 61 26 4
32 -1 56 -44z m38 46 c12 -5 13 -10 5 -25 -13 -26 -24 -24 -37 6 -12 27 -3 32
32 19z m102 -16 c4 -6 10 -25 14 -43 7 -30 4 -37 -27 -64 -19 -17 -39 -28 -44
-25 -5 3 -17 21 -28 41 -17 35 -17 37 2 72 17 32 24 36 49 33 15 -2 31 -9 34
-14z m-261 -26 c-2 -9 -4 -20 -4 -25 -1 -4 -13 0 -27 9 l-26 17 24 13 c27 15
37 10 33 -14z m328 9 c17 -6 17 -8 -2 -25 -23 -21 -26 -21 -35 12 -8 23 2 27
37 13z m-5393 -26 c9 -11 5 -23 -20 -60 -35 -50 -44 -49 -54 5 -5 31 -3 37 21
52 34 21 38 22 53 3z m5023 -11 c26 -22 28 -29 23 -71 -3 -25 -7 -47 -9 -50
-3 -3 -81 23 -93 31 -1 1 -5 20 -9 43 -6 39 -4 43 22 57 36 19 33 20 66 -10z
m443 0 c21 -14 24 -22 18 -53 -8 -44 -14 -51 -59 -67 -40 -14 -40 -14 -50 45
-7 40 -5 46 20 67 33 28 38 29 71 8z m-5556 -55 c0 -21 -16 -24 -40 -9 -13 8
-12 11 5 24 23 17 35 12 35 -15z m5008 -15 c-3 -3 -18 -2 -32 2 l-26 6 22 20
c22 19 23 19 32 -1 5 -12 7 -24 4 -27z m325 -4 c4 -16 -1 -19 -33 -17 l-38 1
16 33 c14 30 17 32 33 17 9 -8 19 -24 22 -34z m-5085 15 c-6 -13 -15 -22 -20
-19 -5 3 -2 15 8 25 23 25 26 24 12 -6z m5377 5 c17 -19 17 -20 -1 -26 -11 -4
-22 -9 -26 -11 -5 -2 -8 10 -8 26 0 36 10 39 35 11z m-5298 -26 c2 -5 -13 -10
-32 -10 -36 0 -44 13 -23 34 9 9 16 9 32 -1 11 -8 21 -18 23 -23z m4886 -15
c-5 -4 -20 -11 -36 -14 -25 -7 -27 -5 -23 16 3 13 5 30 5 37 1 8 11 5 31 -10
17 -12 27 -25 23 -29z m228 28 c0 -3 4 -20 9 -36 l8 -29 -39 16 -39 15 22 24
c20 22 40 27 39 10z m-5467 -22 c35 -15 41 -26 36 -70 -3 -31 -15 -40 -51 -39
-26 1 -38 8 -55 35 l-21 34 20 27 c24 33 24 33 71 13z m5049 -50 c11 -53 4
-64 -35 -60 -18 2 -40 4 -48 4 -8 1 -23 17 -32 36 -17 34 -17 35 7 59 23 23
27 24 62 12 32 -11 39 -19 46 -51z m-4616 49 c-3 -3 -12 -4 -19 -1 -8 3 -5 6
6 6 11 1 17 -2 13 -5z m5278 -82 c-19 -34 -24 -37 -71 -40 l-51 -3 10 50 c9
44 15 51 46 64 34 13 37 13 61 -10 l25 -23 -20 -38z m-593 41 c14 -4 13 -9
-10 -28 -29 -25 -42 -18 -42 24 0 18 4 22 18 16 9 -4 25 -9 34 -12z m463 -25
c-8 -44 -11 -45 -41 -17 l-26 24 29 12 c41 18 44 16 38 -19z m-5665 -17 c11
-22 -2 -31 -32 -23 -14 3 -15 8 -7 23 12 24 26 24 39 0z m5004 3 c10 -26 7
-31 -16 -29 -31 3 -30 2 -18 25 13 24 26 26 34 4z m846 -30 c0 -9 -11 -14 -30
-14 -30 0 -30 0 -14 25 13 20 19 23 30 14 8 -6 14 -18 14 -25z m-5806 -56 l26
-43 -28 -11 c-58 -24 -67 -24 -95 0 -30 26 -32 33 -17 70 8 22 16 26 49 26 36
0 42 -4 65 -42z m66 37 c0 -11 -24 -55 -30 -55 -6 0 -30 44 -30 55 0 3 14 5
30 5 17 0 30 -2 30 -5z m4947 -42 l23 -42 -38 -12 c-55 -19 -59 -19 -87 3 -27
21 -32 48 -13 78 9 14 22 18 52 17 35 -3 42 -8 63 -44z m54 16 c-9 -16 -18
-29 -21 -29 -3 0 -12 13 -21 28 l-16 28 37 1 38 1 -17 -29z m767 -21 c10 -24
9 -30 -11 -49 -36 -34 -50 -37 -94 -20 l-41 16 24 40 c19 33 31 41 61 45 43 7
45 6 61 -32z m-135 2 c-21 -37 -27 -37 -41 -5 -16 35 -16 35 24 35 l35 0 -18
-30z m-5798 -80 c-3 -4 -14 -10 -25 -13 -21 -5 -25 7 -14 38 6 15 8 14 25 -1
10 -9 16 -20 14 -24z m5004 17 c8 -11 5 -16 -14 -25 -23 -11 -25 -10 -25 13 0
27 21 33 39 12z m-4895 -35 c-6 -31 -7 -31 -30 -14 -13 9 -24 20 -24 24 0 6
52 27 58 23 1 -1 -1 -16 -4 -33z m5010 0 c-6 -30 -7 -31 -30 -15 -13 8 -24 19
-24 23 0 8 52 30 58 25 1 -1 -1 -16 -4 -33z m834 13 c2 -26 -12 -32 -38 -15
-13 8 -12 11 5 24 27 21 30 20 33 -9z m-112 -10 c15 -5 14 -9 -6 -30 -26 -27
-40 -20 -40 22 0 15 5 21 15 18 8 -3 22 -7 31 -10z m-5774 -28 l36 -33 -39
-33 c-39 -32 -41 -33 -76 -18 -56 22 -56 77 0 101 42 19 37 20 79 -17z m5003
1 c16 -16 34 -28 39 -28 5 0 -8 -16 -30 -35 -45 -40 -41 -39 -88 -20 -30 13
-36 20 -36 45 0 23 7 35 32 50 38 23 44 22 83 -12z m861 -4 c26 -7 26 -6 28
-47 2 -31 -6 -40 -49 -54 -26 -9 -35 -6 -69 20 l-38 30 38 33 c22 18 45 31 52
29 8 -3 25 -8 38 -11z m-5822 -122 c-1 -1 -14 2 -29 8 l-28 11 24 25 24 26 5
-34 c3 -18 5 -34 4 -36z m5006 28 c0 -33 -7 -37 -34 -17 -17 13 -17 14 -1 30
24 25 35 21 35 -13z m-5126 -31 c-20 -23 -34 -16 -34 16 0 23 2 24 25 13 24
-11 24 -12 9 -29z m5010 -1 c-24 -26 -34 -22 -34 12 0 28 1 29 25 18 24 -11
24 -12 9 -30z m840 23 c16 -18 16 -19 -14 -29 -29 -11 -30 -10 -28 18 3 34 17
38 42 11z m112 -37 c-7 -25 -8 -26 -26 -9 -26 23 -25 33 3 37 29 5 31 3 23
-28z m-5836 -14 c0 -5 -9 -25 -21 -44 -19 -32 -25 -36 -64 -36 -40 0 -44 3
-54 32 -11 31 -10 35 21 59 31 26 33 26 75 12 24 -8 43 -19 43 -23z m5010 4
c0 -2 -9 -21 -20 -42 -32 -59 -100 -64 -119 -9 -10 28 -9 33 21 57 32 27 33
27 75 13 24 -8 43 -17 43 -19z m783 -9 c30 -29 32 -34 16 -69 -10 -21 -18 -24
-52 -23 -35 2 -45 7 -64 36 -13 19 -23 37 -23 42 0 6 68 35 90 38 3 1 18 -10
33 -24z m-5767 -42 c20 -27 17 -33 -16 -33 -28 0 -29 1 -18 25 13 30 17 30 34
8z m5012 -8 c7 -14 12 -27 12 -29 0 -1 -13 -1 -30 2 -34 5 -34 5 -18 32 17 26
22 25 36 -5z m652 -36 c0 -3 -15 -5 -34 -6 l-34 -1 17 29 16 29 17 -23 c10
-12 18 -24 18 -28z m-4893 4 c-3 -3 -23 -6 -44 -8 l-38 -3 40 17 c22 10 42 14
44 9 1 -5 1 -12 -2 -15z m-857 -20 c0 -5 -6 -16 -14 -25 -10 -13 -15 -15 -24
-6 -20 20 -13 38 13 38 14 0 25 -3 25 -7z m115 -40 c-7 -49 -17 -63 -47 -63
-9 0 -20 -5 -23 -11 -8 -12 -55 28 -55 47 0 7 8 26 18 43 15 28 22 31 66 31
l48 0 -7 -47z m4895 40 c-1 -12 -29 -47 -34 -42 -2 2 -9 14 -15 27 -11 20 -10
22 19 22 16 0 30 -3 30 -7z m114 -30 c-8 -57 -10 -61 -50 -78 -36 -15 -37 -14
-60 12 l-23 26 22 39 c21 35 25 38 69 38 l48 0 -6 -37z m-4354 -5 c24 -40 24
-47 0 -76 -18 -22 -20 -22 -59 -6 -23 9 -41 19 -42 23 0 3 -2 16 -4 27 -5 25
20 50 55 57 14 2 26 5 28 6 1 0 11 -14 22 -31z m68 23 c1 -1 -5 -13 -14 -27
l-17 -26 -13 24 c-7 12 -13 26 -14 29 0 5 45 5 58 0z m4942 -26 c24 -37 24
-44 0 -73 -18 -22 -23 -23 -55 -12 -40 13 -46 20 -55 71 -6 34 -5 38 14 41 55
8 77 2 96 -27z m56 23 c3 -4 0 -16 -6 -29 l-12 -22 -13 24 c-7 13 -11 27 -9
30 5 8 30 6 40 -3z m-5661 -48 c-3 -4 -14 -10 -25 -13 -16 -4 -20 0 -20 17 0
13 3 26 7 29 8 9 44 -23 38 -33z m5000 18 c14 -21 14 -23 -2 -30 -33 -13 -40
-9 -35 22 5 36 15 38 37 8z m482 -45 c-2 -1 -16 1 -32 5 l-28 8 24 22 24 23 7
-28 c4 -15 6 -28 5 -30z m-5007 11 c0 -11 -5 -14 -16 -10 -9 3 -18 6 -20 6 -3
0 -2 5 1 10 10 16 35 12 35 -6z m-427 -56 c4 -30 0 -41 -22 -62 -32 -31 -38
-31 -70 -7 -20 15 -22 23 -16 59 6 37 11 42 48 55 48 16 52 12 60 -45z m5008
7 c8 -43 7 -48 -19 -70 -15 -14 -34 -25 -43 -25 -17 0 -62 43 -54 52 3 3 8 18
11 34 3 16 6 29 7 30 18 8 83 30 86 28 2 -2 7 -24 12 -49z m440 -33 c5 -36 2
-42 -23 -57 -28 -16 -30 -16 -63 9 -35 27 -36 33 -20 103 l5 23 48 -19 c43
-17 47 -22 53 -59z m-5389 51 c16 -5 15 -8 -6 -24 -32 -25 -33 -24 -38 11 -4
25 -2 30 11 24 9 -3 24 -9 33 -11z m342 3 c28 -12 34 -20 38 -52 3 -28 0 -42
-11 -51 -29 -21 -47 -20 -76 5 -23 19 -28 32 -27 60 4 58 16 63 76 38z m4676
-10 c0 -1 -11 -13 -24 -25 l-24 -22 -4 34 c-4 34 -3 34 24 25 15 -6 28 -11 28
-12z m-4772 -32 c-2 -13 -7 -11 -27 8 l-25 22 25 6 c25 6 34 -5 27 -36z m5014
16 c-4 -29 -10 -30 -40 -7 -11 8 -9 13 10 23 33 19 35 18 30 -16z m-5449 -25
c-8 -14 -12 -13 -31 4 l-23 19 28 9 c31 11 42 -3 26 -32z m5011 11 c-7 -31
-14 -32 -36 -7 -16 19 -15 20 10 29 33 11 35 11 26 -22z m-4750 -18 c20 -35
20 -37 3 -73 -17 -35 -20 -37 -54 -32 -19 4 -37 7 -38 9 -2 2 -5 21 -8 43 -5
35 -2 43 26 67 18 15 36 26 41 25 5 -2 18 -19 30 -39z m56 25 c0 -2 -5 -14
-11 -25 -11 -21 -12 -21 -24 3 -7 13 -11 27 -9 30 4 7 44 0 44 -8z m89 -27
c22 -23 23 -31 15 -63 -8 -31 -14 -38 -42 -44 -31 -6 -34 -4 -52 32 -20 38
-20 38 1 78 23 45 34 45 78 -3z m4860 0 l24 -43 -22 -36 c-20 -33 -24 -35 -53
-27 -38 11 -35 8 -43 51 -6 31 -3 39 26 67 18 18 35 32 39 32 3 0 16 -20 29
-44z m165 -55 c-8 -43 -11 -46 -47 -55 -23 -5 -30 -2 -47 26 -25 41 -25 49 1
92 l21 36 39 -31 c37 -29 39 -34 33 -68z m199 57 c-22 -25 -30 -23 -35 10 -4
28 -3 28 24 18 26 -9 26 -11 11 -28z m-5008 26 c14 -6 14 -8 -1 -25 -23 -25
-31 -24 -36 6 -5 26 5 31 37 19z m4705 -2 c0 -5 -6 -16 -13 -26 -13 -17 -14
-17 -30 8 l-17 26 30 0 c16 0 30 -4 30 -8z m-5183 -58 c-3 -3 -1 -17 4 -31 9
-24 8 -25 -18 -18 -38 9 -39 12 -12 34 22 19 40 29 26 15z m325 -21 c24 -22
23 -30 -7 -35 -22 -5 -25 -2 -23 23 3 34 5 35 30 12z m4688 -8 c0 -26 -14 -31
-40 -15 -13 8 -12 11 5 24 28 21 35 20 35 -9z m324 -22 c-26 -19 -34 -16 -34
10 0 33 10 40 32 20 18 -16 18 -18 2 -30z m-5164 -20 c0 -13 -31 -18 -43 -7
-3 3 -1 17 6 31 10 23 12 24 24 7 7 -10 13 -24 13 -31z m5010 -5 c0 -4 -11 -8
-25 -8 -27 0 -33 18 -13 38 10 10 15 9 25 -5 7 -9 13 -20 13 -25z"/>
</g>
</svg>
