<svg width="557" height="557" viewBox="0 0 557 557" fill="none" xmlns="http://www.w3.org/2000/svg">
<path d="M284.311 37.5527C147.961 37.5527 37.3008 148.213 37.3008 284.563C37.3008 420.912 147.961 531.572 284.311 531.572C420.661 531.572 531.322 420.912 531.322 284.563C531.322 148.213 420.661 37.5527 284.311 37.5527Z" fill="#E0660B"/>
<path d="M50.1346 482.172C63.9672 482.172 74.8357 493.04 74.8357 506.873C74.8357 520.705 63.9672 531.574 50.1346 531.574C36.3021 531.574 25.4336 520.705 25.4336 506.873C25.4336 493.04 36.3021 482.172 50.1346 482.172Z" fill="white"/>
<path d="M513.536 12.8496C530.332 12.8496 544.165 26.6822 544.165 43.4788C544.165 60.2755 530.332 74.108 513.536 74.108C496.739 74.108 482.906 60.2755 482.906 43.4788C482.906 26.6822 495.751 12.8496 513.536 12.8496Z" fill="white"/>
<path d="M327.786 358.652C351.796 358.652 371.26 378.117 371.26 402.126C371.26 426.135 351.796 445.6 327.786 445.6C303.777 445.6 284.312 426.135 284.312 402.126C284.312 378.117 303.777 358.652 327.786 358.652Z" fill="white"/>
<path d="M424.614 145.232C412.757 133.376 392.996 133.376 381.14 145.232L144.998 380.386C133.141 392.242 133.141 412.003 144.998 423.859C156.854 435.716 176.615 435.716 188.472 423.859L424.614 187.718C430.542 181.79 433.506 173.885 433.506 165.981C433.506 159.065 430.542 151.16 424.614 145.232Z" fill="white"/>
<path d="M241.835 124.492C265.845 124.492 285.309 143.957 285.309 167.966C285.309 191.975 265.845 211.44 241.835 211.44C217.826 211.44 198.361 191.975 198.361 167.966C198.361 143.957 217.826 124.492 241.835 124.492Z" fill="white"/>
<path d="M540.213 127.452C545.153 132.393 545.153 140.297 540.213 145.237C535.272 150.177 527.368 150.177 522.428 145.237C517.488 140.297 517.488 132.393 522.428 127.452C527.368 123.5 535.272 123.5 540.213 127.452Z" fill="white"/>
<path d="M540.213 473.267C545.153 478.207 545.153 486.111 540.213 491.052C535.272 495.992 527.368 495.992 522.428 491.052C517.488 486.111 517.488 478.207 522.428 473.267C527.368 469.315 535.272 469.315 540.213 473.267Z" fill="white"/>
<path d="M478.961 535.51C483.901 540.45 483.901 548.354 478.961 553.295C474.02 558.235 466.116 558.235 461.176 553.295C456.236 548.354 456.236 540.45 461.176 535.51C466.116 530.57 474.02 530.57 478.961 535.51Z" fill="white"/>
<path d="M441.408 3.94849C446.348 8.88869 446.348 16.793 441.408 21.7332C436.468 26.6734 428.563 26.6734 423.623 21.7332C418.683 16.793 418.683 8.88869 423.623 3.94849C428.563 -0.00366431 436.468 -0.00366431 441.408 3.94849Z" fill="white"/>
<path d="M429.558 387.303C434.499 392.243 434.499 400.147 429.558 405.088C424.618 410.028 416.714 410.028 411.774 405.088C406.833 400.147 406.833 392.243 411.774 387.303C416.714 382.363 424.618 382.363 429.558 387.303Z" fill="white"/>
<path d="M144.996 16.7891C149.936 21.7293 149.936 29.6336 144.996 34.5738C140.056 39.514 132.151 39.514 127.211 34.5738C122.271 29.6336 122.271 21.7293 127.211 16.7891C132.151 11.8489 140.056 11.8489 144.996 16.7891Z" fill="white"/>
<path d="M144.996 152.154C149.936 157.094 149.936 164.998 144.996 169.938C140.056 174.878 132.151 174.878 127.211 169.938C122.271 164.998 122.271 157.094 127.211 152.154C132.151 148.201 140.056 148.201 144.996 152.154Z" fill="white"/>
<path d="M144.996 522.671C149.936 527.611 149.936 535.516 144.996 540.456C140.056 545.396 132.151 545.396 127.211 540.456C122.271 535.516 122.271 527.611 127.211 522.671C132.151 518.719 140.056 518.719 144.996 522.671Z" fill="white"/>
<path d="M59.0426 102.751C63.9829 107.691 63.9829 115.596 59.0426 120.536C54.1024 125.476 46.1981 125.476 41.2579 120.536C36.3177 115.596 36.3177 107.691 41.2579 102.751C46.1981 98.7991 54.1024 98.7991 59.0426 102.751Z" fill="white"/>
<path d="M21.4899 423.866C26.4301 428.807 26.4301 436.711 21.4899 441.651C16.5497 446.591 8.64537 446.591 3.70516 441.651C-1.23505 436.711 -1.23505 428.807 3.70516 423.866C8.64537 419.914 16.5497 419.914 21.4899 423.866Z" fill="white"/>
<path d="M166.733 445.608C154.876 445.608 144.008 440.668 136.103 432.764C119.307 415.967 119.307 388.302 136.103 371.505L372.245 135.364C380.15 127.46 391.018 122.52 402.875 122.52C414.731 122.52 425.6 127.46 433.504 135.364C441.408 143.268 446.349 154.137 446.349 165.993C446.349 177.85 441.408 188.718 433.504 196.622L197.362 433.752C189.458 441.656 178.589 445.608 166.733 445.608ZM402.875 148.209C397.935 148.209 392.994 150.185 390.03 153.149L153.888 389.29C146.972 396.206 146.972 408.063 153.888 415.967C157.84 419.919 161.793 420.907 166.733 420.907C171.673 420.907 176.613 418.931 179.577 415.967L415.719 179.826C419.671 175.874 420.66 171.921 420.66 166.981C420.66 162.041 418.683 157.101 415.719 154.137C411.767 150.185 407.815 148.209 402.875 148.209Z" fill="white"/>
<path d="M284.304 544.412C141.038 544.412 24.4492 427.823 24.4492 284.557C24.4492 141.292 141.038 24.7031 284.304 24.7031C427.57 24.7031 543.171 141.292 543.171 284.557C543.171 427.823 427.57 544.412 284.304 544.412ZM284.304 50.3922C154.871 50.3922 49.1503 156.112 49.1503 285.546C49.1503 414.979 154.871 520.699 284.304 520.699C413.738 520.699 518.47 414.979 518.47 285.546C518.47 156.112 413.738 50.3922 284.304 50.3922Z" fill="white"/>
<path d="M241.821 223.301C211.191 223.301 186.49 198.6 186.49 167.971C186.49 137.342 211.191 112.641 241.821 112.641C272.45 112.641 297.151 137.342 297.151 167.971C297.151 198.6 272.45 223.301 241.821 223.301ZM241.821 136.354C225.024 136.354 211.191 150.186 211.191 166.983C211.191 183.779 225.024 197.612 241.821 197.612C258.617 197.612 272.45 183.779 272.45 166.983C272.45 150.186 258.617 136.354 241.821 136.354Z" fill="white"/>
<path d="M327.774 457.457C297.144 457.457 272.443 432.756 272.443 402.127C272.443 371.498 297.144 346.797 327.774 346.797C358.403 346.797 383.104 371.498 383.104 402.127C383.104 432.756 358.403 457.457 327.774 457.457ZM327.774 371.498C310.977 371.498 297.144 385.33 297.144 402.127C297.144 418.924 310.977 432.756 327.774 432.756C344.57 432.756 358.403 418.924 358.403 402.127C358.403 385.33 344.57 371.498 327.774 371.498Z" fill="white"/>
<path d="M105.478 346.809C100.538 346.809 94.6094 342.857 93.6214 337.917C88.6812 321.12 86.7051 303.336 86.7051 285.551C86.7051 253.934 94.6094 221.328 109.43 193.663C112.394 187.735 120.298 185.759 126.227 188.723C132.155 191.687 134.131 199.592 131.167 205.52C118.322 230.221 111.406 257.886 111.406 286.539C111.406 302.348 113.382 318.156 117.334 332.977C119.31 339.893 115.358 346.809 108.442 347.797C108.442 346.809 107.454 346.809 105.478 346.809Z" fill="white"/>
<path d="M448.318 383.364C446.342 383.364 444.366 383.364 442.39 382.376C436.462 379.411 434.486 371.507 437.45 365.579C450.294 340.878 457.211 313.213 457.211 284.56C457.211 264.799 454.246 245.038 447.33 227.253C445.354 220.337 448.318 213.421 455.234 211.445C462.151 209.469 469.067 212.433 471.043 219.349C478.947 240.098 481.912 262.823 481.912 285.548C481.912 317.165 474.007 349.77 459.187 377.435C457.211 381.387 453.258 383.364 448.318 383.364Z" fill="white"/>
<path d="M50.1472 544.411C29.3983 544.411 12.6016 527.615 12.6016 506.866C12.6016 486.117 29.3983 469.32 50.1472 469.32C70.896 469.32 87.6928 486.117 87.6928 506.866C87.6928 527.615 69.908 544.411 50.1472 544.411ZM50.1472 495.009C43.2309 495.009 37.3026 500.938 37.3026 507.854C37.3026 514.77 43.2309 520.698 50.1472 520.698C57.0634 520.698 62.9917 514.77 62.9917 507.854C62.0037 499.949 57.0634 495.009 50.1472 495.009Z" fill="white"/>
<path d="M513.529 86.9475C489.816 86.9475 470.055 67.1867 470.055 43.4737C470.055 19.7608 489.816 0 513.529 0C537.242 0 557.002 19.7608 557.002 43.4737C557.002 67.1867 537.242 86.9475 513.529 86.9475ZM513.529 25.689C503.648 25.689 494.756 33.5933 494.756 44.4618C494.756 55.3302 502.66 63.2345 513.529 63.2345C524.397 63.2345 532.301 55.3302 532.301 44.4618C532.301 33.5933 523.409 25.689 513.529 25.689Z" fill="white"/>
<path d="M99.5404 37.5367H37.2938C30.3775 37.5367 24.4492 31.6084 24.4492 24.6922C24.4492 17.7759 30.3775 11.8477 37.2938 11.8477H99.5404C106.457 11.8477 112.385 17.7759 112.385 24.6922C112.385 31.6084 106.457 37.5367 99.5404 37.5367Z" fill="white"/>
</svg>
