<svg width="25" height="25" viewBox="0 0 25 25" fill="none" xmlns="http://www.w3.org/2000/svg">
<path d="M12.5 8.33379V21.8755M12.5 8.33379C12.1232 6.78108 11.4744 5.45364 10.6383 4.52458C9.80211 3.59552 8.81738 3.10795 7.8125 3.12546C7.12183 3.12546 6.45945 3.39982 5.97108 3.8882C5.4827 4.37657 5.20833 5.03895 5.20833 5.72962C5.20833 6.42029 5.4827 7.08267 5.97108 7.57105C6.45945 8.05942 7.12183 8.33379 7.8125 8.33379M12.5 8.33379C12.8768 6.78108 13.5256 5.45364 14.3617 4.52458C15.1979 3.59552 16.1826 3.10795 17.1875 3.12546C17.8782 3.12546 18.5405 3.39982 19.0289 3.8882C19.5173 4.37657 19.7917 5.03895 19.7917 5.72962C19.7917 6.42029 19.5173 7.08267 19.0289 7.57105C18.5405 8.05942 17.8782 8.33379 17.1875 8.33379M19.7917 12.5005V19.7921C19.7917 20.3447 19.5722 20.8746 19.1815 21.2653C18.7908 21.656 18.2609 21.8755 17.7083 21.8755H7.29167C6.73913 21.8755 6.20923 21.656 5.81853 21.2653C5.42783 20.8746 5.20833 20.3447 5.20833 19.7921V12.5005M4.16667 8.33379H20.8333C21.4086 8.33379 21.875 8.80016 21.875 9.37546V11.4588C21.875 12.0341 21.4086 12.5005 20.8333 12.5005H4.16667C3.59137 12.5005 3.125 12.0341 3.125 11.4588V9.37546C3.125 8.80016 3.59137 8.33379 4.16667 8.33379Z" stroke="#CF191C" stroke-width="2" stroke-linecap="round" stroke-linejoin="round"/>
</svg>
