<svg xmlns="http://www.w3.org/2000/svg" width="31" height="31" viewBox="0 0 31 31" fill="none">
    <g id="Frame">
        <g id="Group">
            <path id="Vector" d="M27.7761 7.54399H24.2482C24.7937 6.81899 25.1175 5.91823 25.1175 4.94314C25.1175 2.55296 23.1729 0.608398 20.7828 0.608398C19.343 0.608398 18.2813 1.12423 17.4416 2.23173C16.7391 3.15832 16.2254 4.45204 15.5811 6.08665C14.9368 4.45199 14.4231 3.15832 13.7205 2.23173C12.8808 1.12423 11.8192 0.608398 10.3794 0.608398C7.98921 0.608398 6.04464 2.55296 6.04464 4.94314C6.04464 5.91823 6.36848 6.81899 6.91396 7.54399H3.386C1.9519 7.54399 0.785156 8.71072 0.785156 10.1448V11.8787C0.785156 13.0089 1.50998 13.9726 2.51905 14.3305V27.5994C2.51905 29.0335 3.68579 30.2002 5.1199 30.2002H26.0423C27.4764 30.2002 28.6431 29.0335 28.6431 27.5994V14.3305C29.6522 13.9726 30.377 13.0089 30.377 11.8787V10.1448C30.377 8.71072 29.2103 7.54399 27.7761 7.54399ZM17.1724 6.7776C18.5006 3.40818 19.0055 2.3423 20.7828 2.3423C22.2169 2.3423 23.3836 3.50903 23.3836 4.94314C23.3836 6.37725 22.2169 7.54399 20.7828 7.54399H16.8692C16.9754 7.27725 17.0767 7.02046 17.1724 6.7776ZM10.3794 2.3423C12.1567 2.3423 12.6616 3.40818 13.9897 6.7776C14.0854 7.02046 14.1867 7.27725 14.293 7.54399H10.3794C8.94528 7.54399 7.77854 6.37725 7.77854 4.94314C7.77854 3.50903 8.94528 2.3423 10.3794 2.3423ZM12.1133 28.4663H5.1199C4.64186 28.4663 4.25295 28.0774 4.25295 27.5994V14.4796H12.1133V28.4663ZM12.1133 12.7457H3.386C2.90797 12.7457 2.51905 12.3568 2.51905 11.8787V10.1448C2.51905 9.66679 2.90797 9.27788 3.386 9.27788H12.1133V12.7457ZM17.315 28.4663H13.8472V9.27788H17.315V28.4663ZM26.9092 27.5994C26.9092 28.0774 26.5203 28.4663 26.0423 28.4663H19.0489V14.4796H26.9092V27.5994ZM28.6431 11.8787C28.6431 12.3568 28.2542 12.7457 27.7761 12.7457H19.0489V9.27788H27.7761C28.2542 9.27788 28.6431 9.66679 28.6431 10.1448V11.8787Z" fill="#CF191C"/>
        </g>
    </g>
</svg>