<svg width="36" height="36" viewBox="0 0 36 36" fill="none" xmlns="http://www.w3.org/2000/svg">
<path d="M18 12.0007V31.5007M18 12.0007C17.4574 9.76476 16.5232 7.85325 15.3191 6.5154C14.115 5.17755 12.697 4.47544 11.25 4.50066C10.2554 4.50066 9.30161 4.89574 8.59835 5.59901C7.89509 6.30227 7.5 7.25609 7.5 8.25066C7.5 9.24522 7.89509 10.199 8.59835 10.9023C9.30161 11.6056 10.2554 12.0007 11.25 12.0007M18 12.0007C18.5426 9.76476 19.4768 7.85325 20.6809 6.5154C21.885 5.17755 23.303 4.47544 24.75 4.50066C25.7446 4.50066 26.6984 4.89574 27.4017 5.59901C28.1049 6.30227 28.5 7.25609 28.5 8.25066C28.5 9.24522 28.1049 10.199 27.4017 10.9023C26.6984 11.6056 25.7446 12.0007 24.75 12.0007M28.5 18.0007V28.5007C28.5 29.2963 28.1839 30.0594 27.6213 30.622C27.0587 31.1846 26.2956 31.5007 25.5 31.5007H10.5C9.70435 31.5007 8.94129 31.1846 8.37868 30.622C7.81607 30.0594 7.5 29.2963 7.5 28.5007V18.0007M6 12.0007H30C30.8284 12.0007 31.5 12.6722 31.5 13.5007V16.5007C31.5 17.3291 30.8284 18.0007 30 18.0007H6C5.17157 18.0007 4.5 17.3291 4.5 16.5007V13.5007C4.5 12.6722 5.17157 12.0007 6 12.0007Z" stroke="#CF191C" stroke-width="2" stroke-linecap="round" stroke-linejoin="round"/>
</svg>
