<svg width="35" height="20" viewBox="0 0 35 20" fill="none" xmlns="http://www.w3.org/2000/svg">
<g clip-path="url(#clip0_3803_8632)">
<path d="M33.4048 15.7688V15.3906H33.3012L33.1813 15.6501L33.0621 15.3906H32.9581V15.7688H33.0317V15.4839L33.1438 15.7297H33.2201L33.3322 15.4833V15.7688H33.4052H33.4048ZM32.7473 15.7688V15.4554H32.88V15.3916H32.541V15.4554H32.6737V15.7688H32.7466H32.7473Z" fill="#F79410"/>
<path d="M21.6308 17.3852H12.666V2.07812H21.6309L21.6308 17.3852Z" fill="#FF5F00"/>
<path d="M13.2336 9.73498C13.2336 6.62994 14.7638 3.86395 17.1466 2.08143C15.3429 0.730164 13.1121 -0.00321397 10.8151 1.05882e-05C5.15694 1.05882e-05 0.570312 4.35844 0.570312 9.73498C0.570312 15.1115 5.15694 19.47 10.8151 19.47C13.1121 19.4732 15.3431 18.7398 17.1468 17.3885C14.7641 15.6063 13.2336 12.8402 13.2336 9.73498Z" fill="#EB001B"/>
<path d="M33.7238 9.73498C33.7238 15.1115 29.1372 19.47 23.479 19.47C21.1817 19.4732 18.9505 18.7398 17.1465 17.3885C19.53 15.606 21.0602 12.8402 21.0602 9.73498C21.0602 6.62978 19.53 3.86395 17.1465 2.08143C18.9505 0.730205 21.1816 -0.00315745 23.4788 1.02188e-05C29.137 1.02188e-05 33.7236 4.35844 33.7236 9.73498" fill="#F79E1B"/>
<path d="M32.1709 11.9299V11.9929H32.2327C32.2443 11.9931 32.2557 11.9903 32.2658 11.9849C32.2699 11.9822 32.2731 11.9786 32.2753 11.9743C32.2774 11.9701 32.2785 11.9655 32.2783 11.9608C32.2785 11.9562 32.2774 11.9516 32.2753 11.9475C32.2731 11.9434 32.2698 11.9399 32.2658 11.9373C32.2558 11.9316 32.2443 11.9288 32.2327 11.9293H32.1709V11.9299ZM32.2333 11.8854C32.2598 11.8838 32.2861 11.891 32.3076 11.9058C32.3162 11.9125 32.3231 11.9211 32.3276 11.9308C32.3321 11.9404 32.3342 11.951 32.3336 11.9616C32.334 11.9707 32.3324 11.9798 32.3288 11.9882C32.3251 11.9967 32.3197 12.0043 32.3127 12.0106C32.2961 12.0243 32.2753 12.0325 32.2534 12.034L32.3363 12.1238H32.2725L32.1962 12.0347H32.1715V12.1238H32.1181V11.8855H32.2342L32.2333 11.8854ZM32.2168 12.206C32.2448 12.2062 32.2725 12.2009 32.2981 12.1902C32.3229 12.1801 32.3454 12.1656 32.3644 12.1476C32.3835 12.1295 32.3988 12.1081 32.4094 12.0846C32.4311 12.0347 32.4311 11.9786 32.4094 11.9287C32.3986 11.9052 32.3834 11.8838 32.3644 11.8657C32.3454 11.8476 32.3229 11.8331 32.2981 11.823C32.2723 11.8129 32.2447 11.8079 32.2168 11.8082C32.1884 11.8079 32.1602 11.813 32.1339 11.823C32.1086 11.8329 32.0856 11.8474 32.0661 11.8657C32.0368 11.8942 32.0169 11.9304 32.0091 11.9696C32.0012 12.0088 32.0056 12.0493 32.0218 12.0861C32.0319 12.1098 32.047 12.1312 32.0661 12.1491C32.0856 12.1674 32.1086 12.1819 32.1339 12.1918C32.1601 12.2024 32.1883 12.2078 32.2168 12.2076M32.2168 11.7509C32.2896 11.7508 32.3596 11.778 32.4115 11.8265C32.4366 11.8498 32.4565 11.8775 32.4702 11.9082C32.4844 11.9397 32.4917 11.9736 32.4917 12.0078C32.4917 12.042 32.4844 12.0759 32.4702 12.1074C32.4562 12.1379 32.4363 12.1656 32.4115 12.1891C32.3861 12.2123 32.3565 12.231 32.3242 12.2443C32.2902 12.258 32.2537 12.2649 32.2168 12.2647C32.1794 12.265 32.1424 12.258 32.108 12.2443C32.0753 12.2313 32.0455 12.2126 32.02 12.1891C31.9953 12.1648 31.9756 12.1361 31.9622 12.1047C31.948 12.0732 31.9407 12.0394 31.9407 12.0051C31.9407 11.9709 31.948 11.937 31.9622 11.9055C31.9759 11.8749 31.9958 11.8471 32.0208 11.8238C32.0459 11.7999 32.0759 11.7812 32.1089 11.7687C32.1433 11.7549 32.1803 11.7479 32.2176 11.7482M6.83716 10.8307C6.83716 10.3764 7.15043 10.0032 7.66243 10.0032C8.15172 10.0032 8.4819 10.3603 8.4819 10.8307C8.4819 11.3011 8.15172 11.6583 7.66243 11.6583C7.15043 11.6583 6.83716 11.285 6.83716 10.8307ZM9.03964 10.8307V9.5378H8.44808V9.85276C8.26045 9.62 7.97586 9.47402 7.58884 9.47402C6.82639 9.47402 6.22803 10.0422 6.22803 10.8313C6.22803 11.6205 6.82606 12.1887 7.58884 12.1887C7.9757 12.1887 8.26045 12.0425 8.44808 11.8099V12.1238H9.03898V10.8307H9.03964ZM29.0277 10.8307C29.0277 10.3764 29.341 10.0032 29.8532 10.0032C30.343 10.0032 30.6726 10.3603 30.6726 10.8307C30.6726 11.3011 30.343 11.6583 29.8532 11.6583C29.3412 11.6583 29.0277 11.285 29.0277 10.8307ZM31.2309 10.8307V8.5H30.6388V9.85276C30.4512 9.62 30.1666 9.47402 29.7796 9.47402C29.0171 9.47402 28.4188 10.0422 28.4188 10.8313C28.4188 11.6205 29.0168 12.1887 29.7796 12.1887C30.1666 12.1887 30.4512 12.0425 30.6388 11.8099V12.1238H31.2309V10.8307ZM16.3817 9.97654C16.7629 9.97654 17.0077 10.2036 17.0702 10.6035H15.6587C15.7218 10.2302 15.9604 9.97654 16.3819 9.97654M16.3936 9.4726C15.5964 9.4726 15.0386 10.0238 15.0386 10.8299C15.0386 11.6518 15.6187 12.1872 16.4332 12.1872C16.843 12.1872 17.2182 12.0901 17.5484 11.825L17.2585 11.4085C17.0304 11.5817 16.74 11.6789 16.4671 11.6789C16.0858 11.6789 15.7388 11.5112 15.6534 11.0458H17.6734C17.6792 10.9759 17.6852 10.9054 17.6852 10.8298C17.6792 10.0239 17.1548 9.47244 16.3933 9.47244M23.5355 10.8298C23.5355 10.3754 23.8487 10.0022 24.3607 10.0022C24.85 10.0022 25.1802 10.3594 25.1802 10.8298C25.1802 11.3002 24.85 11.6573 24.3607 11.6573C23.8487 11.6573 23.5353 11.2841 23.5353 10.8298M25.7378 10.8298V9.5378H25.1465V9.85276C24.9583 9.62 24.6743 9.47402 24.2873 9.47402C23.5248 9.47402 22.9265 10.0422 22.9265 10.8313C22.9265 11.6205 23.5245 12.1887 24.2873 12.1887C24.6743 12.1887 24.9583 12.0425 25.1465 11.8099V12.1238H25.7379V10.8307L25.7378 10.8298ZM20.1948 10.8298C20.1948 11.6139 20.7693 12.1871 21.6461 12.1871C22.0558 12.1871 22.3288 12.1005 22.624 11.8789L22.3399 11.4246C22.1178 11.5762 21.8846 11.6573 21.6272 11.6573C21.155 11.6518 20.8077 11.3274 20.8077 10.8298C20.8077 10.3321 21.155 10.0079 21.6272 10.0022C21.8839 10.0022 22.1171 10.0833 22.3399 10.235L22.624 9.78063C22.3283 9.55906 22.0553 9.47244 21.6461 9.47244C20.7693 9.47244 20.1948 10.0455 20.1948 10.8298ZM27.8209 9.47244C27.4796 9.47244 27.2574 9.6241 27.1037 9.85118V9.5378H26.5175V12.1224H27.1097V10.6735C27.1097 10.2458 27.3031 10.0082 27.6898 10.0082C27.8164 10.0065 27.9422 10.0286 28.0598 10.0732L28.2421 9.54347C28.1111 9.49449 27.9404 9.47291 27.8206 9.47291M11.9643 9.74331C11.6797 9.56504 11.2875 9.47291 10.8549 9.47291C10.1657 9.47291 9.72204 9.78677 9.72204 10.3003C9.72204 10.7217 10.0524 10.9817 10.6607 11.0628L10.9401 11.1006C11.2645 11.1439 11.4177 11.225 11.4177 11.371C11.4177 11.5709 11.2022 11.6849 10.7976 11.6849C10.3879 11.6849 10.0922 11.5605 9.89276 11.4145L9.6148 11.8528C9.93917 12.0798 10.3489 12.1882 10.7926 12.1882C11.5783 12.1882 12.0336 11.8367 12.0336 11.3446C12.0336 10.8902 11.6752 10.6526 11.0832 10.5715L10.8044 10.5331C10.5483 10.5016 10.3431 10.4526 10.3431 10.2794C10.3431 10.0904 10.5365 9.97669 10.8611 9.97669C11.2083 9.97669 11.5445 10.1011 11.7092 10.1983L11.9653 9.74394L11.9643 9.74331ZM19.5972 9.47339C19.256 9.47339 19.0337 9.62504 18.8807 9.85213V9.5378H18.2944V12.1224H18.886V10.6735C18.886 10.2458 19.0794 10.0082 19.4661 10.0082C19.5928 10.0065 19.7185 10.0286 19.8361 10.0732L20.0184 9.54347C19.8875 9.49449 19.7167 9.47291 19.5969 9.47291M14.5492 9.5378H13.5819V8.7537H12.9838V9.5378H12.432V10.0515H12.9838V11.2306C12.9838 11.8302 13.2288 12.1874 13.9286 12.1874C14.1853 12.1874 14.481 12.1118 14.6687 11.9876L14.4978 11.5063C14.3213 11.6035 14.1278 11.6524 13.974 11.6524C13.6783 11.6524 13.5819 11.4792 13.5819 11.2198V10.052H14.5492V9.5378ZM5.70493 12.123V10.5009C5.70493 9.89008 5.29519 9.47906 4.63468 9.47355C4.28743 9.46803 3.92925 9.57071 3.67847 9.93339C3.49084 9.64677 3.19514 9.47355 2.77944 9.47355C2.48888 9.47355 2.20495 9.55465 1.98268 9.85733V9.5378H1.39062V12.1224H1.98732V10.6893C1.98732 10.2406 2.24921 10.0022 2.65364 10.0022C3.04646 10.0022 3.2452 10.2455 3.2452 10.6836V12.1221H3.84322V10.689C3.84322 10.2403 4.11621 10.0019 4.50888 10.0019C4.91281 10.0019 5.10557 10.2452 5.10557 10.6833V12.1217L5.70493 12.123Z" fill="white"/>
</g>
<defs>
<clipPath id="clip0_3803_8632">
<rect width="34" height="20" fill="white" transform="translate(0.697266)"/>
</clipPath>
</defs>
</svg>
