<?xml version="1.0" standalone="no"?>
<!DOCTYPE svg PUBLIC "-//W3C//DTD SVG 20010904//EN"
 "http://www.w3.org/TR/2001/REC-SVG-20010904/DTD/svg10.dtd">
<svg version="1.0" xmlns="http://www.w3.org/2000/svg"
 width="512.000000pt" height="512.000000pt" viewBox="0 0 512.000000 512.000000"
 preserveAspectRatio="xMidYMid meet">

<g transform="translate(0.000000,512.000000) scale(0.100000,-0.100000)"
fill="#fff" stroke="none">
<path d="M4765 5105 c-225 -36 -393 -144 -515 -331 -26 -40 -60 -107 -75 -148
-15 -42 -30 -76 -33 -76 -3 0 -19 10 -36 23 -83 62 -213 119 -310 137 -154 27
-334 -10 -455 -92 -178 -122 -258 -242 -330 -499 -103 -363 -273 -539 -446
-460 -103 47 -171 175 -196 366 l-12 98 -34 -54 c-91 -143 -143 -302 -143
-434 0 -132 20 -190 149 -431 58 -109 66 -152 45 -223 -21 -71 -119 -172 -185
-190 -85 -23 -187 28 -230 115 -20 43 -21 53 -14 182 4 76 7 153 6 172 -4 84
-57 178 -140 246 l-34 28 7 -84 c11 -128 -18 -230 -76 -271 -55 -40 -157 -21
-194 35 -8 14 -23 62 -32 107 -14 71 -14 100 -4 213 10 110 43 270 77 371 9
28 -67 -60 -143 -164 -79 -108 -175 -301 -203 -406 -27 -105 -29 -253 -4 -350
41 -161 124 -292 343 -542 187 -213 252 -321 252 -419 0 -59 -37 -138 -96
-203 -67 -73 -120 -106 -194 -119 -207 -38 -390 148 -390 397 0 52 21 166 40
215 6 16 8 31 5 34 -7 7 -110 -63 -163 -111 -92 -86 -167 -212 -191 -325 -26
-126 -12 -262 49 -462 63 -206 62 -311 -4 -445 -64 -128 -113 -178 -306 -308
-96 -65 -240 -150 -319 -190 -183 -92 -215 -125 -226 -235 -7 -72 -7 -74 29
-127 21 -32 53 -64 78 -79 196 -113 982 -68 1628 94 1572 395 2692 1409 3197
2895 52 154 116 382 145 515 29 137 36 345 13 446 -43 198 -158 342 -350 437
-108 53 -154 62 -307 62 -110 0 -138 3 -138 14 0 23 142 157 196 184 78 39
195 66 334 77 175 14 201 18 237 40 90 54 54 213 -60 265 -59 28 -115 31 -242
10z m-950 -814 c62 -31 135 -95 220 -194 l50 -58 120 43 c112 40 127 43 225
43 84 0 112 -4 140 -19 62 -34 91 -60 118 -106 67 -113 27 -380 -122 -815
-188 -551 -434 -984 -797 -1400 -641 -734 -1634 -1226 -2745 -1360 -200 -24
-205 -22 -108 45 756 518 1393 1179 1819 1885 268 446 479 953 600 1445 19 80
45 181 56 225 67 257 232 360 424 266z"/>
</g>
</svg>
