<svg width="67" height="20" viewBox="0 0 67 20" fill="none" xmlns="http://www.w3.org/2000/svg">
<g clip-path="url(#clip0_3803_8623)">
<path d="M28.7345 20.1106H23.3457L26.7185 0.376953H32.1073L28.7345 20.1106Z" fill="#005CA9"/>
<path d="M18.81 0.378326L13.6705 13.9475L13.0612 11.0236L11.2447 2.15166C11.2447 2.15166 11.0231 0.373047 8.68597 0.373047H0.201253L0.101562 0.705547C0.101562 0.705547 2.69904 1.22277 5.73958 2.95916L10.425 20.1014H16.0353L24.6142 0.373047H18.81V0.378326Z" fill="#005CA9"/>
<path d="M61.2107 20.1111H66.162L61.8476 0.382812H57.5111C55.5118 0.382812 55.0244 1.85531 55.0244 1.85531L46.9883 20.1164H52.6041L53.7284 17.1873H60.5793L61.2107 20.1111ZM55.2792 13.1286L58.1092 5.74504L59.7043 13.1286H55.2792Z" fill="#005CA9"/>
<path d="M47.4053 5.12177L48.1751 0.883716C48.1751 0.883716 45.7992 0.0234375 43.3291 0.0234375C40.6541 0.0234375 34.3016 1.13705 34.3016 6.55733C34.3016 11.6557 41.7562 11.719 41.7562 14.3948C41.7562 17.0707 35.0714 16.5957 32.8616 14.9068L32.0586 19.3348C32.0586 19.3348 34.4678 20.4484 38.1452 20.4484C41.8227 20.4484 47.3721 18.6329 47.3721 13.6929C47.3721 8.56288 39.851 8.08788 39.851 5.85538C39.851 3.62288 45.1014 3.91316 47.4053 5.12177Z" fill="#005CA9"/>
<path d="M13.0668 11.0275L11.2502 2.15556C11.2502 2.15556 11.0287 0.376953 8.69151 0.376953H0.201253L0.101562 0.709454C0.101562 0.709454 4.18331 1.51695 8.10444 4.53584C11.8428 7.42806 13.0668 11.0275 13.0668 11.0275Z" fill="#F7A823"/>
</g>
<defs>
<clipPath id="clip0_3803_8623">
<rect width="66.4107" height="20" fill="white"/>
</clipPath>
</defs>
</svg>
