<svg width="40" height="40" viewBox="0 0 40 40" fill="none" xmlns="http://www.w3.org/2000/svg">
<path d="M20 1C9.55 1 1 9.55 1 20C1 30.45 9.55 39 20 39C30.45 39 39 30.45 39 20C39 9.55 30.45 1 20 1Z" fill="#222222"/>
<path d="M20.9674 27.0373C13.0507 27.0373 8.5646 21.6715 8.38867 12.6113H12.347C12.435 19.2086 15.4257 22.0234 17.7127 22.5511V12.6113H21.4072V18.3289C23.6942 18.065 26.0692 15.5141 26.8609 12.6113H30.5553C29.9396 16.1298 27.3007 18.7687 25.4535 19.8243C27.3007 20.7039 30.2914 22.991 31.347 27.0373H27.2127C26.3331 24.3104 24.134 22.1993 21.2313 21.8474V27.0373H20.9674Z" fill="white"/>
</svg>
