<svg width="166.000000" height="17.419434" viewBox="0 0 166 17.4194" fill="none" xmlns="http://www.w3.org/2000/svg" xmlns:xlink="http://www.w3.org/1999/xlink">
	<desc>
			Created with Pixso.
	</desc>
	<defs/>
	<path id="path" d="M17.47 0.33L3.67 0.33L3.42 7.01C3.37 8.43 3.28 9.58 3.13 10.46C2.98 11.35 2.74 12.04 2.4 12.54C2.05 13.03 1.56 13.28 0.93 13.28C0.7 13.28 0.48 13.25 0.26 13.2L0 17.08C0.81 17.27 1.55 17.37 2.2 17.37C3.6 17.37 4.69 16.96 5.45 16.14C6.22 15.31 6.76 14.15 7.08 12.65C7.4 11.15 7.6 9.21 7.68 6.82L7.78 4.09L12.7 4.09L12.7 17.08L17.47 17.08L17.47 0.33ZM23.59 0.33L23.59 17.08L28.17 17.08L35.22 7.27L35.22 17.08L39.99 17.08L39.99 0.33L35.44 0.33L28.37 10.16L28.37 0.33L23.59 0.33ZM60.48 0.33L55.71 0.33L55.71 7.6C54.86 7.99 53.84 8.18 52.67 8.18C50.52 8.18 49.44 7.1 49.44 4.95L49.44 0.33L44.67 0.33L44.67 5.47C44.67 7.6 45.3 9.22 46.56 10.34C47.83 11.47 49.66 12.03 52.06 12.03C53.17 12.03 54.38 11.82 55.71 11.39L55.71 17.08L60.48 17.08L60.48 0.33ZM82.9 0.33L78.05 0.33L78.05 6.62L71.44 6.62L71.44 0.33L66.6 0.33L66.6 17.08L71.44 17.08L71.44 10.55L78.05 10.55L78.05 17.08L82.9 17.08L82.9 0.33ZM92.56 16.29C94 17.04 95.62 17.41 97.44 17.41C99.25 17.41 100.88 17.04 102.32 16.29C103.76 15.54 104.9 14.51 105.72 13.18C106.55 11.86 106.96 10.36 106.96 8.71C106.96 7.05 106.55 5.56 105.72 4.23C104.9 2.91 103.76 1.87 102.32 1.12C100.88 0.37 99.25 0 97.44 0C95.62 0 94 0.37 92.56 1.12C91.11 1.87 89.98 2.91 89.15 4.23C88.33 5.56 87.92 7.05 87.92 8.71C87.92 10.36 88.33 11.86 89.15 13.18C89.98 14.51 91.11 15.54 92.56 16.29ZM99.79 12.89C99.08 13.29 98.3 13.49 97.44 13.49C96.57 13.49 95.79 13.29 95.09 12.89C94.39 12.49 93.83 11.93 93.42 11.21C93.02 10.48 92.81 9.65 92.81 8.71C92.81 7.77 93.02 6.93 93.42 6.21C93.83 5.48 94.39 4.92 95.09 4.52C95.79 4.12 96.57 3.92 97.44 3.92C98.3 3.92 99.08 4.12 99.79 4.52C100.49 4.92 101.04 5.48 101.45 6.21C101.86 6.93 102.06 7.77 102.06 8.71C102.06 9.65 101.86 10.48 101.45 11.21C101.04 11.93 100.49 12.49 99.79 12.89ZM115.51 16.3C116.94 17.05 118.55 17.41 120.35 17.41C121.92 17.41 123.33 17.14 124.58 16.6C125.84 16.06 126.88 15.28 127.71 14.26L124.63 11.53C123.52 12.84 122.17 13.49 120.59 13.49C119.66 13.49 118.83 13.29 118.11 12.89C117.38 12.49 116.82 11.93 116.42 11.21C116.02 10.48 115.82 9.65 115.82 8.71C115.82 7.77 116.02 6.93 116.42 6.21C116.82 5.48 117.38 4.92 118.11 4.52C118.83 4.12 119.66 3.92 120.59 3.92C122.17 3.92 123.52 4.58 124.63 5.88L127.71 3.15C126.88 2.13 125.84 1.35 124.58 0.81C123.33 0.27 121.92 0 120.35 0C118.55 0 116.94 0.37 115.51 1.11C114.09 1.85 112.97 2.88 112.15 4.21C111.33 5.53 110.92 7.03 110.92 8.71C110.92 10.38 111.33 11.88 112.15 13.2C112.97 14.53 114.09 15.56 115.51 16.3ZM146 4.09L146 0.33L130.73 0.33L130.73 4.09L135.99 4.09L135.99 17.08L140.76 17.08L140.76 4.09L146 4.09ZM164.29 7.04C163.14 6.12 161.52 5.67 159.41 5.67L155.45 5.67L155.45 0.33L150.67 0.33L150.67 17.08L158.78 17.08C161.04 17.08 162.82 16.57 164.09 15.55C165.36 14.53 166 13.05 166 11.12C166 9.32 165.42 7.96 164.29 7.04ZM160.4 13.04C159.92 13.47 159.27 13.68 158.46 13.68L155.45 13.68L155.45 9.04L158.46 9.04C160.24 9.04 161.13 9.77 161.13 11.22C161.13 12 160.89 12.61 160.4 13.04Z" fill="#535353" fill-opacity="1.000000" fill-rule="nonzero"/>
</svg>
