<svg width="90.000000" height="90.000000" viewBox="0 0 90 90" fill="none" xmlns="http://www.w3.org/2000/svg" xmlns:xlink="http://www.w3.org/1999/xlink">
	<desc>
			Created with Pixso.
	</desc>
	<defs>
		<linearGradient x1="45.000000" y1="0.000000" x2="45.000000" y2="90.000000" id="paint_linear_25_8_0" gradientUnits="userSpaceOnUse">
			<stop stop-color="#00C865"/>
			<stop offset="1.000000" stop-color="#00A553"/>
		</linearGradient>
	</defs>
	<path id="Многоугольник 2" d="M45 0L9.81 16.94L1.12 55.01L25.47 85.54L64.52 85.54L88.87 55.01L80.18 16.94L45 0Z" fill="#F4F3F3" fill-opacity="1.000000" fill-rule="evenodd"/>
	<path id="Многоугольник 2" d="M9.81 16.94L1.12 55.01L25.47 85.54L64.52 85.54L88.87 55.01L80.18 16.94L45 0L9.81 16.94ZM15.02 21.09L7.62 53.53L28.36 79.54L61.63 79.54L82.37 53.53L74.97 21.09L45 6.65L15.02 21.09Z" fill="url(#paint_linear_25_8_0)" fill-opacity="1.000000" fill-rule="evenodd"/>
	<path id="2" d="M54.78 58L36.11 58L36.11 54L45.44 45.37C47.81 43.09 49.09 41.66 49.09 39.57C49.09 37.27 47.38 35.84 45.08 35.84C42.69 35.84 41.11 37.38 41.11 39.88L35.86 39.88C35.85 34.74 39.62 31.45 45.11 31.45C50.73 31.45 54.44 34.66 54.44 39.2C54.44 42.18 52.99 44.64 47.61 49.55L43.79 53.29L43.79 53.47L54.78 53.47L54.78 58Z" fill="#00A553" fill-opacity="1.000000" fill-rule="evenodd"/>
</svg>
