<svg width="90.000000" height="90.000000" viewBox="0 0 90 90" fill="none" xmlns="http://www.w3.org/2000/svg" xmlns:xlink="http://www.w3.org/1999/xlink">
	<desc>
			Created with Pixso.
	</desc>
	<defs>
		<linearGradient x1="45.000000" y1="0.000000" x2="45.000000" y2="90.000000" id="paint_linear_25_31_0" gradientUnits="userSpaceOnUse">
			<stop stop-color="#00A553"/>
			<stop offset="1.000000" stop-color="#01753B"/>
		</linearGradient>
		<linearGradient x1="46.000000" y1="23.000000" x2="46.000000" y2="67.000000" id="paint_linear_25_32_0" gradientUnits="userSpaceOnUse">
			<stop stop-color="#00A553"/>
			<stop offset="1.000000" stop-color="#01753B"/>
		</linearGradient>
	</defs>
	<path id="Многоугольник 2" d="M45 0L9.81 16.94L1.12 55.01L25.47 85.54L64.52 85.54L88.87 55.01L80.18 16.94L45 0Z" fill="#F4F3F3" fill-opacity="1.000000" fill-rule="evenodd"/>
	<path id="Многоугольник 2" d="M9.81 16.94L1.12 55.01L25.47 85.54L64.52 85.54L88.87 55.01L80.18 16.94L45 0L9.81 16.94ZM15.02 21.09L7.62 53.53L28.36 79.54L61.63 79.54L82.37 53.53L74.97 21.09L45 6.65L15.02 21.09Z" fill="url(#paint_linear_25_31_0)" fill-opacity="1.000000" fill-rule="evenodd"/>
	<path id="3" d="M55.87 50.65C55.88 55.12 51.68 58.36 45.8 58.36C40.04 58.36 35.96 55.17 35.86 50.59L41.44 50.59C41.54 52.51 43.36 53.79 45.81 53.79C48.34 53.79 50.13 52.36 50.11 50.27C50.13 48.16 48.28 46.68 45.31 46.68L42.86 46.68L42.86 42.61L45.31 42.61C47.83 42.61 49.58 41.23 49.57 39.16C49.58 37.19 48.08 35.84 45.84 35.84C43.58 35.84 41.76 37.13 41.69 39.12L36.39 39.12C36.46 34.6 40.5 31.45 45.87 31.45C51.29 31.45 54.91 34.7 54.9 38.83C54.91 41.77 52.89 43.84 49.96 44.36L49.96 44.57C53.81 45.06 55.88 47.39 55.87 50.65Z" fill="url(#paint_linear_25_32_0)" fill-opacity="1.000000" fill-rule="evenodd"/>
</svg>
