<svg width="90.000000" height="90.000000" viewBox="0 0 90 90" fill="none" xmlns="http://www.w3.org/2000/svg" xmlns:xlink="http://www.w3.org/1999/xlink">
	<desc>
			Created with Pixso.
	</desc>
	<defs>
		<linearGradient x1="45.000000" y1="0.000000" x2="45.000000" y2="90.000000" id="paint_linear_25_38_0" gradientUnits="userSpaceOnUse">
			<stop stop-color="#01753B"/>
			<stop offset="1.000000" stop-color="#00391C"/>
		</linearGradient>
	</defs>
	<path id="Многоугольник 2" d="M45 0L9.81 16.94L1.12 55.01L25.47 85.54L64.52 85.54L88.87 55.01L80.18 16.94L45 0Z" fill="#F4F3F3" fill-opacity="1.000000" fill-rule="evenodd"/>
	<path id="Многоугольник 2" d="M9.81 16.94L1.12 55.01L25.47 85.54L64.52 85.54L88.87 55.01L80.18 16.94L45 0L9.81 16.94ZM15.02 21.09L7.62 53.53L28.36 79.54L61.63 79.54L82.37 53.53L74.97 21.09L45 6.65L15.02 21.09Z" fill="url(#paint_linear_25_38_0)" fill-opacity="1.000000" fill-rule="evenodd"/>
	<path id="4" d="M47.29 53.39L34.72 53.39L34.72 49.03L45.65 31.81L52.58 31.81L52.58 48.96L55.83 48.96L55.83 53.39L52.58 53.39L52.58 58L47.29 58L47.29 53.39ZM40.3 48.96L47.39 48.96L47.39 37.85L47.19 37.85L40.3 48.75L40.3 48.96Z" fill="#01753B" fill-opacity="1.000000" fill-rule="evenodd"/>
</svg>
