<svg width="143" height="143" viewBox="0 0 143 143" fill="none" xmlns="http://www.w3.org/2000/svg">
<g clip-path="url(#clip0_3367_6074)">
<path d="M71.45 112.701C94.4803 112.701 113.15 94.0311 113.15 71.0008C113.15 47.9705 94.4803 29.3008 71.45 29.3008C48.4197 29.3008 29.75 47.9705 29.75 71.0008C29.75 94.0311 48.4197 112.701 71.45 112.701Z" fill="#CF1C1D"/>
<path d="M105.75 101.2L112.85 108.3C119.65 100.8 124.35 91.3996 126.25 81.0996H116.05C114.35 88.5996 110.75 95.4996 105.75 101.2Z" fill="black"/>
<path d="M71.5502 116.7C46.3502 116.7 25.9502 96.2996 25.9502 71.0996H15.9502C15.9502 101.8 40.8502 126.7 71.5502 126.7C84.3502 126.7 96.1502 122.4 105.55 115.1L98.4502 108C90.8502 113.4 81.5502 116.7 71.5502 116.7Z" fill="black"/>
<path d="M116.05 81H126.25C126.85 77.8 127.15 74.4 127.15 71H117.15C117.15 74.5 116.75 77.8 116.05 81Z" fill="black"/>
<path d="M98.3506 107.9L105.451 115C108.051 113 110.551 110.7 112.751 108.2L105.651 101.1C103.551 103.7 101.051 105.9 98.3506 107.9Z" fill="black"/>
<path d="M71.4502 15.4004V25.4004C84.0502 25.4004 95.4502 30.5004 103.75 38.8004L110.85 31.7004C100.75 21.6004 86.8502 15.4004 71.4502 15.4004Z" fill="black"/>
<path d="M126.751 64.9H116.651H84.5506H71.5506H71.4506V75.1H116.851C114.851 98.4 95.2506 116.7 71.4506 116.7C46.2506 116.7 25.8506 96.3 25.8506 71.1C25.8506 45.9 46.2506 25.4 71.4506 25.4C82.1506 25.4 91.9506 29.1 99.7506 35.3C102.451 37.4 104.851 39.8 106.951 42.5L114.051 35.4C111.851 32.8 109.451 30.4 106.851 28.2C97.2506 20.2 84.8506 15.5 71.4506 15.5C40.7506 15.5 15.8506 40.4 15.8506 71.1C15.8506 101.8 40.7506 126.7 71.4506 126.7C100.851 126.7 124.851 103.9 126.951 75.1C127.051 73.8 127.151 72.4 127.151 71.1C127.151 69 126.951 66.9 126.751 64.9Z" fill="black"/>
<path d="M131.85 131.4H71.4502V142.1H142.55V71H131.85V131.4Z" fill="black"/>
<path d="M11.1502 10.7H71.4502V0H0.450195V71H11.1502V10.7Z" fill="black"/>
</g>
<defs>
<clipPath id="clip0_3367_6074">
<rect width="142.1" height="142.1" fill="white" transform="translate(0.450195)"/>
</clipPath>
</defs>
</svg>
