<svg width="50" height="50" viewBox="0 0 50 50" fill="none" xmlns="http://www.w3.org/2000/svg">
  <rect width="50" height="50" rx="25" fill="#CF191C"/>
  <path d="M25 19.6671V37M25 19.6671C24.5177 17.6797 23.6873 15.9806 22.617 14.7914C21.5467 13.6022 20.2862 12.9782 19 13.0006C18.1159 13.0006 17.2681 13.3518 16.643 13.9769C16.0179 14.602 15.6667 15.4498 15.6667 16.3338C15.6667 17.2179 16.0179 18.0657 16.643 18.6908C17.2681 19.3159 18.1159 19.6671 19 19.6671M25 19.6671C25.4823 17.6797 26.3127 15.9806 27.383 14.7914C28.4533 13.6022 29.7138 12.9782 31 13.0006C31.8841 13.0006 32.7319 13.3518 33.357 13.9769C33.9821 14.602 34.3333 15.4498 34.3333 16.3338C34.3333 17.2179 33.9821 18.0657 33.357 18.6908C32.7319 19.3159 31.8841 19.6671 31 19.6671M34.3333 25.0003V34.3334C34.3333 35.0406 34.0524 35.7189 33.5523 36.219C33.0522 36.7191 32.3739 37 31.6667 37H18.3333C17.6261 37 16.9478 36.7191 16.4477 36.219C15.9476 35.7189 15.6667 35.0406 15.6667 34.3334V25.0003M14.3333 19.6671H35.6667C36.403 19.6671 37 20.264 37 21.0004V23.667C37 24.4034 36.403 25.0003 35.6667 25.0003H14.3333C13.597 25.0003 13 24.4034 13 23.667V21.0004C13 20.264 13.597 19.6671 14.3333 19.6671Z" stroke="white" stroke-width="2" stroke-linecap="round" stroke-linejoin="round"/>
</svg>
