<svg width="19" height="20" viewBox="0 0 19 20" fill="none" xmlns="http://www.w3.org/2000/svg">
<path d="M8.3125 8.18554H8.90625C9.23412 8.18554 9.5 8.45142 9.5 8.77929V13.5293C9.5 13.8572 9.76588 14.123 10.0937 14.123H10.6875M9.5 5.81055H9.51187" stroke="#2A4157" stroke-width="1.1875" stroke-linecap="round" stroke-linejoin="round"/>
<path d="M11.1497 19.3225C12.3782 19.1058 13.5522 18.6493 14.6043 17.9789C15.6564 17.3087 16.5663 16.4377 17.2819 15.4157C17.9975 14.3938 18.5048 13.2409 18.7748 12.0229C19.0449 10.8049 19.0723 9.54569 18.8557 8.31711C18.639 7.08852 18.1825 5.91462 17.5122 4.86244C16.8419 3.81027 15.9709 2.90042 14.9489 2.18484C13.927 1.46928 12.7742 0.962004 11.5561 0.691979C10.3381 0.421966 9.0789 0.394487 7.85031 0.611122C6.62172 0.827758 5.44782 1.28427 4.39564 1.95457C3.34347 2.62488 2.43362 3.49588 1.71805 4.51781C1.00248 5.53975 0.495208 6.69262 0.225182 7.91063C-0.044831 9.12864 -0.0723097 10.3879 0.144326 11.6165C0.360961 12.845 0.817471 14.019 1.48778 15.0711C2.15809 16.1232 3.02908 17.0331 4.05102 17.7487C5.07295 18.4643 6.22583 18.9716 7.44383 19.2416C8.66185 19.5117 9.92107 19.5391 11.1497 19.3225Z" fill="#2A4157" fill-opacity="0.24"/>
</svg>
