<svg xmlns="http://www.w3.org/2000/svg" width="17" height="22" viewBox="0 0 17 22" fill="none">
<path d="M16.9901 21.0812L15.7402 6.17252C15.7061 5.76537 15.3875 5.45352 15.006 5.45352H12.4285V4.2084C12.4285 1.88789 10.6661 0 8.4997 0C6.33344 0 4.57118 1.88789 4.57118 4.2084V5.45352H1.99198C1.61039 5.45352 1.29181 5.76537 1.2577 6.17252L0.0029478 21.1398C-0.015532 21.3607 0.0534722 21.5796 0.193152 21.7432C0.332831 21.9068 0.530309 22 0.737223 22H16.2608C16.2614 22 16.2622 22 16.2628 22C16.67 22 17 21.6464 17 21.2104C16.9999 21.1664 16.9966 21.1232 16.9901 21.0812ZM6.04563 4.2084C6.04563 2.75871 7.14655 1.57929 8.4998 1.57929C9.85315 1.57929 10.9542 2.75871 10.9542 4.2084V5.45352H6.04563V4.2084ZM1.54365 20.4208L2.666 7.03281H4.57118V8.44491C4.57118 8.88101 4.90116 9.23456 5.30841 9.23456C5.71565 9.23456 6.04563 8.88101 6.04563 8.44491V7.03281H10.9542V8.44491C10.9542 8.88101 11.2842 9.23456 11.6914 9.23456C12.0986 9.23456 12.4286 8.88101 12.4286 8.44491V7.03281H14.332L15.4544 20.4208H1.54365Z" fill="black"/>
</svg>