<svg xmlns="http://www.w3.org/2000/svg" width="23" height="18" viewBox="0 0 23 18" fill="none">
<path d="M20.9271 0H2.35474C1.26407 0 0.374268 0.888834 0.374268 1.98047V15.1836C0.374268 16.2715 1.26011 17.1641 2.35474 17.1641H20.9271C22.0151 17.1641 22.9076 16.2782 22.9076 15.1836V1.98047C22.9076 0.892531 22.0218 0 20.9271 0ZM20.6537 1.32031L11.6829 10.2911L2.6346 1.32031H20.6537ZM1.69458 14.9102V2.24757L8.05316 8.55162L1.69458 14.9102ZM2.62817 15.8438L8.99076 9.48116L11.2202 11.6915C11.4783 11.9473 11.8947 11.9465 12.1518 11.6894L14.3256 9.51562L20.6537 15.8438H2.62817ZM21.5873 14.9102L15.2592 8.58203L21.5873 2.25386V14.9102Z" fill="black"/>
</svg>