<svg xmlns="http://www.w3.org/2000/svg" width="21" height="24" viewBox="0 0 21 24" fill="none">
<path d="M5.59351 6.43337C7.02355 6.43337 8.14378 5.56742 8.14378 4.46199C8.14378 3.35667 7.02355 2.49072 5.59351 2.49072C4.16347 2.49072 3.04346 3.35667 3.04346 4.46199C3.04346 5.56742 4.16347 6.43337 5.59351 6.43337ZM5.59351 4.12345C6.1478 4.12345 6.46904 4.36206 6.5092 4.46188C6.46904 4.56181 6.1478 4.80042 5.59351 4.80042C5.03943 4.80042 4.71809 4.56181 4.67792 4.46188C4.7182 4.36206 5.03943 4.12345 5.59351 4.12345Z" fill="black"/>
<path d="M15.1484 6.43337C16.5785 6.43337 17.6985 5.56742 17.6985 4.46199C17.6985 3.35667 16.5785 2.49072 15.1484 2.49072C13.7184 2.49072 12.5981 3.35667 12.5981 4.46199C12.5983 5.56742 13.7185 6.43337 15.1484 6.43337ZM15.1484 4.12345C15.7025 4.12345 16.0237 4.36195 16.064 4.46188C16.0238 4.56181 15.7025 4.80042 15.1484 4.80042C14.5942 4.80042 14.2729 4.56181 14.2327 4.46188C14.2729 4.36206 14.5943 4.12345 15.1484 4.12345Z" fill="black"/>
<path d="M1.7381 21.8514C2.77843 22.6018 4.14762 23.0149 5.59377 23.0149C7.03991 23.0149 8.40932 22.6017 9.44965 21.8514C9.81062 21.591 10.1186 21.3 10.3713 20.9857C10.6241 21.3 10.9319 21.5911 11.2931 21.8514C12.3333 22.6018 13.7028 23.0149 15.1489 23.0149C16.595 23.0149 17.9642 22.6017 19.0046 21.8514C20.1255 21.043 20.7427 19.9424 20.7427 18.7526V13.6548C20.7427 12.9223 20.508 12.224 20.0666 11.6067C20.5109 10.9857 20.7427 10.2894 20.7427 9.55978V4.46196C20.7427 3.27217 20.1255 2.17175 19.0046 1.36328C17.9642 0.612936 16.595 0.199829 15.1489 0.199829C13.7028 0.199829 12.3333 0.613045 11.2931 1.36328C10.9322 1.62366 10.6242 1.91463 10.3713 2.2289C10.1187 1.91463 9.81073 1.62366 9.44965 1.36328C8.40932 0.612936 7.03991 0.199829 5.59377 0.199829C4.14762 0.199829 2.77843 0.613045 1.7381 1.36328C0.617212 2.17175 0 3.27217 0 4.46196V9.55978C0 10.2893 0.231754 10.9857 0.676102 11.6067C0.234693 12.2241 0 12.9224 0 13.6548V18.7526C0 19.9424 0.617212 21.043 1.7381 21.8514ZM5.59377 21.3821C3.4467 21.3821 1.63284 20.178 1.63284 18.7526V16.6737C1.66789 16.7003 1.70196 16.7275 1.7381 16.7535C2.77843 17.5039 4.14762 17.9171 5.59377 17.9171C7.03991 17.9171 8.40932 17.5039 9.44965 16.7535C9.48579 16.7275 9.51987 16.7003 9.55492 16.6736V18.7526C9.55492 20.178 7.74095 21.3821 5.59377 21.3821ZM1.63284 7.48086C1.66789 7.50753 1.70196 7.53463 1.7381 7.56065C2.77843 8.3111 4.14762 8.72421 5.59377 8.72421C7.03991 8.72421 8.40932 8.31099 9.44965 7.56065C9.48579 7.53463 9.51987 7.50742 9.55492 7.48075V9.55978C9.55492 9.90333 9.45161 10.2045 9.30825 10.4577C8.29622 9.77434 6.9881 9.39258 5.59377 9.39258C4.21217 9.39258 2.90133 9.77064 1.87994 10.4586C1.73647 10.2052 1.63284 9.90377 1.63284 9.55978V7.48086ZM5.59377 11.0254C6.89361 11.0254 8.11704 11.4613 8.86629 12.1915C9.18045 12.4975 9.55481 12.9998 9.55481 13.6548C9.55481 15.0802 7.74084 16.2842 5.59366 16.2842C3.44659 16.2842 1.63273 15.0801 1.63273 13.6548C1.63284 12.2295 3.4467 11.0254 5.59377 11.0254ZM15.1488 11.0254C17.2959 11.0254 19.1097 12.2296 19.1097 13.6548C19.1097 15.0802 17.2959 16.2842 15.1488 16.2842C13.0016 16.2842 11.1876 15.0801 11.1876 13.6548C11.1878 12.2295 13.0017 11.0254 15.1488 11.0254ZM18.8627 10.4586C17.8413 9.77064 16.5305 9.39258 15.1489 9.39258C13.7672 9.39258 12.4566 9.77064 11.4351 10.4584C11.2916 10.205 11.1879 9.90355 11.1879 9.55978V7.48086C11.2229 7.50753 11.2571 7.53463 11.2931 7.56065C12.3335 8.3111 13.7029 8.72421 15.149 8.72421C16.5952 8.72421 17.9643 8.31099 19.0047 7.56065C19.0408 7.53463 19.0749 7.50753 19.1099 7.48086V9.55978C19.1097 9.90377 19.0062 10.2051 18.8627 10.4586ZM15.1488 21.3821C13.0016 21.3821 11.1876 20.178 11.1876 18.7526V16.6737C11.2227 16.7003 11.257 16.7275 11.293 16.7535C12.3332 17.5039 13.7026 17.9171 15.1488 17.9171C16.5949 17.9171 17.9641 17.5039 19.0045 16.7535C19.0406 16.7275 19.0747 16.7003 19.1097 16.6737V18.7526C19.1097 20.178 17.2959 21.3821 15.1488 21.3821ZM15.1488 1.83256C17.2959 1.83256 19.1097 3.03672 19.1097 4.46186C19.1097 5.88721 17.2959 7.09137 15.1488 7.09137C13.0016 7.09137 11.1876 5.8871 11.1876 4.46186C11.1878 3.03672 13.0017 1.83256 15.1488 1.83256ZM5.59377 1.83256C7.74095 1.83256 9.55492 3.03672 9.55492 4.46186C9.55492 5.88721 7.74095 7.09137 5.59377 7.09137C3.4467 7.09137 1.63284 5.8871 1.63284 4.46186C1.63284 3.03672 3.4467 1.83256 5.59377 1.83256Z" fill="black"/>
<path d="M5.59351 15.6262C7.02355 15.6262 8.14378 14.7603 8.14378 13.6548C8.14378 12.5494 7.02355 11.6835 5.59351 11.6835C4.16347 11.6835 3.04346 12.5494 3.04346 13.6548C3.04346 14.7603 4.16347 15.6262 5.59351 15.6262ZM5.59351 13.3163C6.1478 13.3163 6.46904 13.5549 6.5092 13.6548C6.46904 13.7548 6.1478 13.9934 5.59351 13.9934C5.03943 13.9934 4.71809 13.7548 4.67792 13.6548C4.71809 13.5549 5.03943 13.3163 5.59351 13.3163Z" fill="black"/>
<path d="M15.1484 15.6262C16.5785 15.6262 17.6985 14.7603 17.6985 13.6548C17.6985 12.5494 16.5785 11.6835 15.1484 11.6835C13.7184 11.6835 12.5981 12.5494 12.5981 13.6548C12.5983 14.7603 13.7185 15.6262 15.1484 15.6262ZM15.1484 13.3163C15.7025 13.3163 16.0238 13.5549 16.064 13.6548C16.0238 13.7548 15.7025 13.9934 15.1484 13.9934C14.5942 13.9934 14.2729 13.7548 14.2327 13.6548C14.2729 13.5549 14.5943 13.3163 15.1484 13.3163Z" fill="black"/>
</svg>