<svg width="54" height="54" viewBox="0 0 54 54" fill="none" xmlns="http://www.w3.org/2000/svg">
<path d="M30.1726 26.9994L44.3476 12.8469C44.7713 12.4233 45.0093 11.8486 45.0093 11.2494C45.0093 10.6503 44.7713 10.0756 44.3476 9.65194C43.9239 9.22826 43.3493 8.99023 42.7501 8.99023C42.1509 8.99023 41.5763 9.22826 41.1526 9.65194L27.0001 23.8269L12.8476 9.65194C12.4239 9.22826 11.8493 8.99023 11.2501 8.99023C10.6509 8.99023 10.0763 9.22826 9.65261 9.65194C9.22892 10.0756 8.9909 10.6503 8.9909 11.2494C8.9909 11.8486 9.22892 12.4233 9.65261 12.8469L23.8276 26.9994L9.65261 41.1519C9.44172 41.3611 9.27433 41.61 9.1601 41.8841C9.04587 42.1583 8.98706 42.4524 8.98706 42.7494C8.98706 43.0465 9.04587 43.3406 9.1601 43.6147C9.27433 43.8889 9.44172 44.1378 9.65261 44.3469C9.86177 44.5578 10.1106 44.7252 10.3848 44.8395C10.659 44.9537 10.9531 45.0125 11.2501 45.0125C11.5471 45.0125 11.8412 44.9537 12.1154 44.8395C12.3896 44.7252 12.6384 44.5578 12.8476 44.3469L27.0001 30.1719L41.1526 44.3469C41.3618 44.5578 41.6106 44.7252 41.8848 44.8395C42.159 44.9537 42.4531 45.0125 42.7501 45.0125C43.0471 45.0125 43.3412 44.9537 43.6154 44.8395C43.8896 44.7252 44.1384 44.5578 44.3476 44.3469C44.5585 44.1378 44.7259 43.8889 44.8401 43.6147C44.9543 43.3406 45.0132 43.0465 45.0132 42.7494C45.0132 42.4524 44.9543 42.1583 44.8401 41.8841C44.7259 41.61 44.5585 41.3611 44.3476 41.1519L30.1726 26.9994Z" fill="white"/>
</svg>
